<?xml version="1.0" encoding="UTF-8"?>
<!DOCTYPE svg PUBLIC "-//W3C//DTD SVG 1.1//EN" "http://www.w3.org/Graphics/SVG/1.1/DTD/svg11.dtd">
<!-- Creator: CorelDRAW -->
<svg xmlns="http://www.w3.org/2000/svg" xml:space="preserve" width="1710px" height="900px" style="shape-rendering:geometricPrecision; text-rendering:geometricPrecision; image-rendering:optimizeQuality; fill-rule:evenodd; clip-rule:evenodd"
viewBox="0 0 1710 900"
 xmlns:xlink="http://www.w3.org/1999/xlink">
 <defs>
  <style type="text/css">
   <![CDATA[
    .fil2 {fill:#002868}
    .fil0 {fill:#BF0A30}
    .fil1 {fill:white}
   ]]>
  </style>
 </defs>
 <g id="Layer_x0020_1">
  <metadata id="CorelCorpID_0Corel-Layer"/>
  <polygon class="fil0" points="0.0011811,0 1710,0 1710,899.999 0.0011811,899.999 "/>
  <polygon class="fil1" points="-0.56811,761.538 1709.43,761.538 1709.43,830.769 -0.56811,830.769 "/>
  <polygon class="fil1" points="-0.56811,69.2315 1709.43,69.2315 1709.43,138.462 -0.56811,138.462 "/>
  <polygon class="fil1" points="-0.56811,207.692 1709.43,207.692 1709.43,276.924 -0.56811,276.924 "/>
  <polygon class="fil1" points="-0.56811,346.154 1709.43,346.154 1709.43,415.384 -0.56811,415.384 "/>
  <polygon class="fil1" points="-0.56811,484.616 1709.43,484.616 1709.43,553.846 -0.56811,553.846 "/>
  <polygon class="fil1" points="-0.56811,623.076 1709.43,623.076 1709.43,692.308 -0.56811,692.308 "/>
  <polygon class="fil2" points="0.284646,484.616 684.058,484.616 684.058,0.0011811 0.284646,0.0011811 "/>
  <g id="_293567608">
   <polygon id="_298821584" class="fil1" points="581.744,105.124 588.008,124.404 608.278,124.404 591.879,136.316 598.141,155.6 581.744,143.682 565.345,155.6 571.607,136.316 555.21,124.404 575.478,124.404 "/>
   <polygon id="_297323656" class="fil1" points="501.886,105.124 508.15,124.404 528.42,124.404 512.022,136.316 518.284,155.6 501.886,143.682 485.487,155.6 491.751,136.316 475.351,124.404 495.621,124.404 "/>
   <polygon id="_295834304" class="fil1" points="422.028,105.124 428.293,124.404 448.563,124.404 432.165,136.316 438.428,155.6 422.028,143.682 405.631,155.6 411.893,136.316 395.494,124.404 415.765,124.404 "/>
   <polygon id="_297399080" class="fil1" points="342.171,105.124 348.436,124.404 368.705,124.404 352.307,136.316 358.57,155.6 342.171,143.682 325.773,155.6 332.035,136.316 315.638,124.404 335.907,124.404 "/>
   <polygon id="_295835264" class="fil1" points="262.315,105.124 268.578,124.404 288.848,124.404 272.45,136.316 278.712,155.6 262.315,143.682 245.915,155.6 252.177,136.316 235.78,124.404 256.05,124.404 "/>
   <polygon id="_295835336" class="fil1" points="182.458,105.124 188.721,124.404 208.991,124.404 192.592,136.316 198.855,155.6 182.458,143.682 166.058,155.6 172.32,136.316 155.922,124.404 176.192,124.404 "/>
   <polygon id="_295835408" class="fil1" points="102.599,105.124 108.865,124.404 129.132,124.404 112.735,136.316 118.997,155.6 102.599,143.682 86.2016,155.6 92.4638,136.316 76.0642,124.404 96.3343,124.404 "/>
   <polygon id="_295835480" class="fil1" points="581.744,254.387 588.008,273.665 608.278,273.665 591.879,285.579 598.141,304.863 581.744,292.945 565.345,304.863 571.607,285.579 555.21,273.665 575.478,273.665 "/>
   <polygon id="_299940712" class="fil1" points="501.886,254.387 508.15,273.665 528.42,273.665 512.022,285.579 518.284,304.863 501.886,292.945 485.487,304.863 491.751,285.579 475.351,273.665 495.621,273.665 "/>
   <polygon id="_293566360" class="fil1" points="422.028,254.387 428.293,273.665 448.563,273.665 432.165,285.579 438.428,304.863 422.028,292.945 405.631,304.863 411.893,285.579 395.494,273.665 415.765,273.665 "/>
   <polygon id="_293564440" class="fil1" points="342.171,254.387 348.436,273.665 368.705,273.665 352.307,285.579 358.57,304.863 342.171,292.945 325.773,304.863 332.035,285.579 315.638,273.665 335.907,273.665 "/>
   <polygon id="_295315608" class="fil1" points="262.315,254.387 268.578,273.665 288.848,273.665 272.45,285.579 278.712,304.863 262.315,292.945 245.915,304.863 252.177,285.579 235.78,273.665 256.05,273.665 "/>
   <polygon id="_253428728" class="fil1" points="182.458,254.387 188.721,273.665 208.991,273.665 192.592,285.579 198.855,304.863 182.458,292.945 166.058,304.863 172.32,285.579 155.922,273.665 176.192,273.665 "/>
   <polygon id="_253570160" class="fil1" points="102.599,254.387 108.865,273.665 129.132,273.665 112.735,285.579 118.997,304.863 102.599,292.945 86.2016,304.863 92.4638,285.579 76.0642,273.665 96.3343,273.665 "/>
   <polygon id="_253570232" class="fil1" points="571.465,403.648 577.728,422.926 597.998,422.926 581.601,434.839 587.863,454.122 571.465,442.205 555.067,454.122 561.327,434.839 544.93,422.926 565.2,422.926 "/>
   <polygon id="_253570304" class="fil1" points="491.608,403.648 497.871,422.926 518.141,422.926 501.743,434.839 508.005,454.122 491.608,442.205 475.208,454.122 481.47,434.839 465.073,422.926 485.343,422.926 "/>
   <polygon id="_253570376" class="fil1" points="411.75,403.648 418.015,422.926 438.285,422.926 421.885,434.839 428.147,454.122 411.75,442.205 395.352,454.122 401.614,434.839 385.217,422.926 405.484,422.926 "/>
   <polygon id="_253570448" class="fil1" points="331.892,403.648 338.158,422.926 358.428,422.926 342.028,434.839 348.291,454.122 331.892,442.205 315.495,454.122 321.757,434.839 305.357,422.926 325.628,422.926 "/>
   <polygon id="_295827392" class="fil1" points="252.034,403.648 258.299,422.926 278.569,422.926 262.172,434.839 268.434,454.122 252.034,442.205 235.637,454.122 241.899,434.839 225.501,422.926 245.771,422.926 "/>
   <polygon id="_295834376" class="fil1" points="172.178,403.648 178.442,422.926 198.712,422.926 182.315,434.839 188.577,454.122 172.178,442.205 155.779,454.122 162.041,434.839 145.644,422.926 165.914,422.926 "/>
   <polygon id="_295834232" class="fil1" points="92.3209,403.648 98.5843,422.926 118.854,422.926 102.456,434.839 108.718,454.122 92.3209,442.205 75.9213,454.122 82.1846,434.839 65.7862,422.926 86.0563,422.926 "/>
   <polygon id="_295834160" class="fil1" points="621.672,30.4949 627.935,49.7728 648.206,49.7728 631.808,61.6878 638.07,80.9693 621.672,69.052 605.275,80.9693 611.537,61.6878 595.137,49.7728 615.407,49.7728 "/>
   <polygon id="_295834088" class="fil1" points="541.814,30.4949 548.079,49.7728 568.349,49.7728 551.952,61.6878 558.214,80.9693 541.814,69.052 525.416,80.9693 531.678,61.6878 515.281,49.7728 535.551,49.7728 "/>
   <polygon id="_295834016" class="fil1" points="461.957,30.4949 468.222,49.7728 488.492,49.7728 472.093,61.6878 478.355,80.9693 461.957,69.052 445.559,80.9693 451.821,61.6878 435.424,49.7728 455.694,49.7728 "/>
   <polygon id="_295826792" class="fil1" points="382.101,30.4949 388.364,49.7728 408.634,49.7728 392.236,61.6878 398.498,80.9693 382.101,69.052 365.701,80.9693 371.963,61.6878 355.565,49.7728 375.835,49.7728 "/>
   <polygon id="_295826000" class="fil1" points="302.242,30.4949 308.507,49.7728 328.778,49.7728 312.379,61.6878 318.641,80.9693 302.242,69.052 285.844,80.9693 292.107,61.6878 275.708,49.7728 295.978,49.7728 "/>
   <polygon id="_295823384" class="fil1" points="222.385,30.4949 228.648,49.7728 248.919,49.7728 232.521,61.6878 238.783,80.9693 222.385,69.052 205.988,80.9693 212.25,61.6878 195.85,49.7728 216.12,49.7728 "/>
   <polygon id="_295823312" class="fil1" points="142.528,30.4949 148.792,49.7728 169.062,49.7728 152.665,61.6878 158.927,80.9693 142.528,69.052 126.129,80.9693 132.391,61.6878 115.994,49.7728 136.264,49.7728 "/>
   <polygon id="_295823240" class="fil1" points="62.6705,30.4949 68.935,49.7728 89.2051,49.7728 72.8055,61.6878 79.0677,80.9693 62.6705,69.052 46.272,80.9693 52.5343,61.6878 36.137,49.7728 56.4071,49.7728 "/>
   <polygon id="_295823168" class="fil1" points="621.672,329.019 627.935,348.296 648.206,348.296 631.808,360.211 638.07,379.494 621.672,367.577 605.275,379.494 611.537,360.211 595.137,348.296 615.407,348.296 "/>
   <polygon id="_295823096" class="fil1" points="541.814,329.019 548.079,348.296 568.349,348.296 551.952,360.211 558.214,379.494 541.814,367.577 525.416,379.494 531.678,360.211 515.281,348.296 535.551,348.296 "/>
   <polygon id="_295823024" class="fil1" points="461.957,329.019 468.222,348.296 488.492,348.296 472.093,360.211 478.355,379.494 461.957,367.577 445.559,379.494 451.821,360.211 435.424,348.296 455.694,348.296 "/>
   <polygon id="_295822952" class="fil1" points="382.101,329.019 388.364,348.296 408.634,348.296 392.236,360.211 398.498,379.494 382.101,367.577 365.701,379.494 371.963,360.211 355.565,348.296 375.835,348.296 "/>
   <polygon id="_295822880" class="fil1" points="302.242,329.019 308.507,348.296 328.778,348.296 312.379,360.211 318.641,379.494 302.242,367.577 285.844,379.494 292.107,360.211 275.708,348.296 295.978,348.296 "/>
   <polygon id="_295822808" class="fil1" points="222.385,329.019 228.648,348.296 248.919,348.296 232.521,360.211 238.783,379.494 222.385,367.577 205.988,379.494 212.25,360.211 195.85,348.296 216.12,348.296 "/>
   <polygon id="_295822760" class="fil1" points="142.528,329.019 148.792,348.296 169.062,348.296 152.665,360.211 158.927,379.494 142.528,367.577 126.129,379.494 132.391,360.211 115.994,348.296 136.264,348.296 "/>
   <polygon id="_295822616" class="fil1" points="62.6705,329.019 68.935,348.296 89.2051,348.296 72.8055,360.211 79.0677,379.494 62.6705,367.577 46.272,379.494 52.5343,360.211 36.137,348.296 56.4071,348.296 "/>
   <polygon id="_295822016" class="fil1" points="621.672,179.754 627.935,199.032 648.206,199.032 631.808,210.946 638.07,230.23 621.672,218.313 605.275,230.23 611.537,210.946 595.137,199.032 615.407,199.032 "/>
   <polygon id="_295821416" class="fil1" points="541.814,179.754 548.079,199.032 568.349,199.032 551.952,210.946 558.214,230.23 541.814,218.313 525.416,230.23 531.678,210.946 515.281,199.032 535.551,199.032 "/>
   <polygon id="_295821296" class="fil1" points="461.957,179.754 468.222,199.032 488.492,199.032 472.093,210.946 478.355,230.23 461.957,218.313 445.559,230.23 451.821,210.946 435.424,199.032 455.694,199.032 "/>
   <polygon id="_295821248" class="fil1" points="382.101,179.754 388.364,199.032 408.634,199.032 392.236,210.946 398.498,230.23 382.101,218.313 365.701,230.23 371.963,210.946 355.565,199.032 375.835,199.032 "/>
   <polygon id="_295820336" class="fil1" points="302.242,179.754 308.507,199.032 328.778,199.032 312.379,210.946 318.641,230.23 302.242,218.313 285.844,230.23 292.107,210.946 275.708,199.032 295.978,199.032 "/>
   <polygon id="_293568184" class="fil1" points="222.385,179.754 228.648,199.032 248.919,199.032 232.521,210.946 238.783,230.23 222.385,218.313 205.988,230.23 212.25,210.946 195.85,199.032 216.12,199.032 "/>
   <polygon id="_293567752" class="fil1" points="142.528,179.754 148.792,199.032 169.062,199.032 152.665,210.946 158.927,230.23 142.528,218.313 126.129,230.23 132.391,210.946 115.994,199.032 136.264,199.032 "/>
   <polygon id="_293567680" class="fil1" points="62.6705,179.754 68.935,199.032 89.2051,199.032 72.8055,210.946 79.0677,230.23 62.6705,218.313 46.272,230.23 52.5343,210.946 36.137,199.032 56.4071,199.032 "/>
  </g>
 </g>
</svg>
